<?xml version="1.0" encoding="iso-8859-1"?>
<!-- Generator: Adobe Illustrator 16.0.0, SVG Export Plug-In . SVG Version: 6.00 Build 0)  -->
<!DOCTYPE svg PUBLIC "-//W3C//DTD SVG 1.1//EN" "http://www.w3.org/Graphics/SVG/1.1/DTD/svg11.dtd">
<svg version="1.1" id="Capa_1" xmlns="http://www.w3.org/2000/svg" xmlns:xlink="http://www.w3.org/1999/xlink" x="0px" y="0px"
	 width="589.748px" height="589.748px" viewBox="0 0 589.748 589.748" style="enable-background:new 0 0 589.748 589.748;"
	 xml:space="preserve">
<g>
	<g id="Layer_2_2_">
		<path d="M498.658,267.846c-9.219-9.744-20.59-14.382-33.211-15.491c-13.914-1.234-26.719,3.098-37.514,12.278
			c-4.82,4.093-15.416,2.763-16.916-5.413c-0.795-4.303-0.096-7.602,2.305-11.246c3.854-5.862,6.98-12.202,10.422-18.331
			c3.73-6.646,7.508-13.263,11.16-19.947c5.26-9.61,10.375-19.307,15.672-28.898c3.76-6.799,7.785-13.445,11.486-20.273
			c0.459-0.851,0.104-3.031-0.594-3.48c-7.898-5.106-15.777-10.28-23.982-14.86c-7.602-4.236-15.502-7.975-23.447-11.542
			c-8.348-3.739-16.889-7.076-25.418-10.404c-0.879-0.344-2.869,0.191-3.299,0.928c-5.26,9.008-10.346,18.111-15.443,27.215
			c-4.006,7.153-7.918,14.363-11.924,21.516c-2.381,4.255-4.877,8.434-7.297,12.661c-3.193,5.575-6.215,11.255-9.609,16.715
			c-1.234,1.989-0.363,2.467,1.07,3.232c5.25,2.812,11.016,5.001,15.586,8.673c7.736,6.225,15.109,13.034,21.879,20.301
			c4.629,4.963,8.598,10.796,11.725,16.82c3.824,7.373,6.865,15.233,9.477,23.132c2.094,6.34,4.006,13.024,4.283,19.632
			c0.441,10.317,1.473,20.837-1.291,31.04c-2.352,8.645-4.484,17.423-7.764,25.723c-2.41,6.101-6.445,11.58-9.879,17.27
			c-6.225,10.309-14.354,18.943-24.115,25.925c-6.428,4.599-13.207,8.701-20.035,13.157c14.621,26.584,29.396,53.436,44.266,80.459
			c4.762-1.788,9.256-3.375,13.664-5.154c7.412-2.974,14.918-5.766,22.129-9.189c6.082-2.888,11.857-6.464,17.662-9.906
			c7.41-4.399,14.734-8.932,22.012-13.541c0.604-0.382,1.043-2.056,0.717-2.706c-1.768-3.5-3.748-6.904-5.766-10.271
			c-4.246-7.085-8.635-14.095-12.812-21.219c-3.5-5.967-6.752-12.077-10.166-18.083c-3.711-6.512-7.525-12.957-11.207-19.488
			c-2.611-4.638-4.887-9.477-7.65-14.019c-2.008-3.299-3.91-6.292-3.768-10.528c0.152-4.6,2.18-7.583,5.824-9.668
			c3.613-2.056,7.391-1.864,10.814,0.546c2.945,2.074,5.412,5.077,8.615,6.492c5.527,2.438,11.408,4.122,17.232,5.834
			c7.602,2.228,15.328,0.927,22.586-1.062c7.268-1.989,14.258-5.394,19.861-10.806c2.85-2.754,5.939-5.441,8.09-8.712
			c4.285-6.493,7.432-13.426,8.885-21.324c1.51-8.195,0.688-16.065-1.645-23.61C508.957,280.516,504.404,273.927,498.658,267.846z"
			/>
		<path d="M183.983,301.85c0.421-46.885,24.174-79.417,64.69-100.846c-1.817-3.471-3.461-6.761-5.24-9.983
			c-3.423-6.177-6.99-12.278-10.375-18.475c-5.518-10.117-10.882-20.32-16.438-30.418c-3.577-6.502-7.574-12.766-10.987-19.345
			c-1.454-2.802-2.802-3.137-5.613-2.142c-12.642,4.466-25.016,9.543-36.979,15.606c-11.915,6.043-23.418,12.728-34.32,20.492
			c-1.778,1.262-1.96,2.104-1.004,3.777c2.792,4.848,5.537,9.725,8.271,14.611c4.973,8.874,9.955,17.739,14.86,26.632
			c3.242,5.871,6.282,11.857,9.572,17.7c5.843,10.375,12.02,20.579,17.643,31.078c2.448,4.571,2.247,10.604-2.639,14.009
			c-5.011,3.491-9.486,3.596-14.22-0.115c-6.311-4.953-13.167-8.424-20.913-10.509c-11.59-3.127-22.711-1.894-33.564,2.802
			c-2.18,0.946-4.112,2.429-6.244,3.48c-6.216,3.079-10.815,7.994-14.755,13.455c-4.447,6.168-7.076,13.158-8.683,20.655
			c-1.73,8.071-1.052,16.008,1.167,23.677c2.878,9.955,8.807,18.149,16.677,24.996c5.613,4.887,12.192,8.339,19.096,9.975
			c6.666,1.577,13.933,1.367,20.866,0.898c7.621-0.507,14.621-3.528,20.817-8.176c5.699-4.274,11.16-9.209,18.905-3.558
			c3.242,2.362,5.431,10.375,3.414,13.751c-7.937,13.272-15.816,26.584-23.524,39.99c-4.169,7.249-7.851,14.774-11.915,22.09
			c-4.456,8.013-9.151,15.902-13.646,23.896c-2.362,4.207-2.094,4.724,2.142,7.277c4.8,2.878,9.505,5.947,14.373,8.711
			c8.09,4.6,16.18,9.237,24.48,13.436c5.556,2.812,11.427,5.011,17.241,7.286c5.393,2.113,10.892,3.969,16.524,6.006
			c14.908-27.119,29.653-53.942,44.322-80.631C207.775,381.381,183.563,349.012,183.983,301.85z"/>
		<path d="M283.979,220.368c-36.777,4.839-64.327,32.302-72.245,60.99c55.348,0,110.629,0,166.129,0
			C364.667,233.545,324.189,215.08,283.979,220.368z"/>
		<path d="M381.019,300.482c-9.82,0-19.201,0-28.889,0c0.727,9.562-3.203,28.143-13.1,40.028
			c-9.926,11.915-22.529,18.207-37.658,19.68c-16.983,1.645-32.694-1.692-45.546-13.464c-13.655-12.498-20.129-27.119-18.81-46.244
			c-9.763,0-18.972,0-29.223,0c-0.239,38.25,14.688,62.089,45.719,78.986c29.863,16.266,60.559,15.242,88.883-3.433
			C369.066,358.45,382.291,329.17,381.019,300.482z"/>
		<path d="M260.656,176.715c3.242,5.948,6.474,11.886,9.477,17.404c6.541-0.88,12.622-2.458,18.675-2.343
			c9.313,0.182,18.59,1.559,27.893,2.314c0.957,0.077,2.486-0.296,2.869-0.975c2.486-4.332,4.695-8.817,7.057-13.215
			c2.238-4.169,4.543-8.3,6.752-12.316c-12.719-24.203-25.389-48.319-38.451-73.172c-0.822,1.482-1.358,2.381-1.836,3.309
			c-1.96,3.825-3.854,7.688-5.862,11.484c-2.438,4.628-4.954,9.218-7.459,13.818c-2.228,4.083-4.456,8.157-6.722,12.221
			c-2.381,4.274-4.858,8.501-7.201,12.804c-2.381,4.361-4.418,8.932-7.028,13.148c-2.611,4.208-2.917,7.526-0.249,11.762
			C259.336,174.171,259.967,175.462,260.656,176.715z"/>
		<path d="M272.991,331.341c10.949,8.501,29.424,10.643,42.047,1.157c10.566-7.938,16.734-22.453,13.721-32.016
			c-22.807,0-45.632,0-68.41,0C257.127,310.045,263.008,323.595,272.991,331.341z"/>
		<path d="M322.248,413.836c-1.281-2.447-2.811-3.356-6.119-2.515c-5.699,1.444-11.676,2.133-17.566,2.381
			c-10.175,0.431-20.388,0.479-30.486-2.696c-2.62,6.034-5.125,11.8-7.688,17.69c22.96,8.894,45.729,8.894,68.889,0.899
			c-0.049-0.794,0.105-1.492-0.145-1.999C326.886,422.987,324.638,418.379,322.248,413.836z"/>
		<path d="M541.498,355.343c10.613-15.654,15.863-33.345,15.586-52.556c-0.43-30.237-12.9-55.721-36.088-73.708
			c-12.527-9.715-25.887-16.065-39.914-18.972c0.469-0.794,0.928-1.597,1.377-2.4c2.295-4.15,4.514-8.338,6.74-12.527
			c1.914-3.605,3.836-7.21,5.795-10.796c1.482-2.716,3.014-5.403,4.543-8.09c2.295-4.036,4.59-8.081,6.76-12.183
			c4.189-7.908,3.031-18.59-2.744-25.398c-2.781-3.28-5.785-5.25-7.773-6.56l-0.871-0.583l-4.465-3.213
			c-3.883-2.812-7.908-5.709-12.184-8.491c-7.707-5.011-14.793-9.343-21.668-13.244c-4.17-2.362-8.387-4.236-12.105-5.891
			l-3.08-1.377c-1.988-0.909-3.969-1.846-5.957-2.773c-5.633-2.658-11.455-5.402-17.795-7.707c-7.422-2.697-14.861-5.001-22.07-7.22
			c-3.672-1.138-7.354-2.276-11.008-3.462c-2.236-0.727-5.66-1.683-9.609-1.683c-5.375,0-15.367,1.855-21.832,14.248
			c-1.338,2.562-2.658,5.125-3.977,7.698L311.625,30.59L294.708,0l-16.639,30.743l-36.873,68.124
			c-1.884-3.232-3.749-6.474-5.575-9.735c-4.523-8.07-12.125-12.699-20.865-12.699c-2.305,0-4.657,0.334-7,1.004
			c-4.208,1.195-9.113,2.601-14.038,4.293l-5.747,1.941c-6.866,2.305-13.961,4.686-21.057,7.641
			c-12.393,5.154-23.543,9.916-34.616,15.902c-9.333,5.049-17.968,10.815-26.316,16.39l-5.106,3.404
			c-3.796,2.515-7.172,5.25-10.146,7.669c-1.176,0.947-2.343,1.903-3.519,2.821l-12.852,10.002l7.832,14.287l26.479,48.291
			c-14.86,2.993-28.745,9.763-41.463,20.225c-21.994,18.102-33.938,42.773-34.53,71.355c-0.526,25.293,8.186,48.195,25.178,66.249
			c14.248,15.128,31.049,24.538,50.107,28.086c-2.936,5.288-5.872,10.575-8.798,15.863c-1.3,2.362-2.562,4.733-3.834,7.115
			c-1.625,3.05-3.251,6.11-4.963,9.112c-1.214,2.133-2.524,4.218-3.834,6.293c-1.281,2.046-2.563,4.102-3.796,6.187
			c-5.891,10.012-1.568,21.649,6.015,27.119c7.851,5.671,15.73,11.303,23.677,16.858c12.451,8.702,25.408,15.864,38.508,21.286
			l4.676,1.941c7.468,3.117,15.195,6.331,23.227,9.123c7.631,2.648,15.3,4.915,22.711,7.104c3.137,0.928,6.264,1.855,9.391,2.812
			l9.955,4.657c3.892,32.751,35.324,58.283,73.526,58.283c38.508,0,70.112-25.943,73.592-59.058l10.49-3.51l4.715-1.683
			l10.107-3.118c2.018-0.593,4.035-1.214,6.062-1.778c4.973-1.367,10.117-2.821,15.396-4.743
			c7.889-2.878,16.352-6.368,26.641-10.949c6.588-2.936,12.938-6.206,18.877-9.696c8.883-5.23,17.566-10.662,25.789-16.142
			c5.184-3.452,9.707-7.172,14.076-10.776l1.463-1.205c8.492-6.962,9.18-19.153,4.936-26.909c-2.229-4.073-4.562-8.09-6.895-12.097
			l-2.42-4.159l-3.271-5.651c-3.107-5.374-6.225-10.748-9.295-16.142c-1.156-2.037-2.303-4.073-3.441-6.12
			c6.961-1.301,13.637-3.404,19.957-6.292C517.552,382.251,531.093,370.69,541.498,355.343z M463.82,378.465
			c-4.809,0-9.734-0.411-14.764-1.167c3.461,6.254,6.396,11.552,9.332,16.84c3.232,5.823,6.436,11.656,9.727,17.441
			c4.168,7.325,8.404,14.612,12.621,21.908c3.051,5.278,6.168,10.519,9.096,15.864c0.41,0.746,0.268,2.496-0.287,2.955
			c-4.562,3.748-9.094,7.573-14,10.844c-8.148,5.422-16.457,10.604-24.891,15.567c-5.471,3.223-11.16,6.12-16.965,8.702
			c-8.357,3.729-16.811,7.296-25.408,10.433c-6.617,2.409-13.512,4.035-20.281,6.024c-4.82,1.415-9.629,2.83-14.85,4.37
			c-2.736-4.753-5.49-9.371-8.072-14.066c-2.477-4.504-4.732-9.123-7.172-13.646c-4.34-8.033-8.807-16.008-13.109-24.069
			c-1.598-2.993-2.133-3.997-3.576-3.997c-0.871,0-2.076,0.363-4.045,0.87c-8.148,2.104-16.324,3.873-24.309,5.661
			c22.223,7.659,38.221,28.735,38.221,53.607c0,31.326-25.35,56.725-56.609,56.725c-31.27,0-56.61-25.398-56.61-56.725
			c0-24.566,15.606-45.422,37.409-53.312c-7.516-2.065-15.472-4.341-23.572-6.54c-0.918-0.249-1.721-0.584-2.448-0.584
			c-1.301,0-2.362,0.546-3.366,2.592c-4.581,9.267-9.744,18.217-14.697,27.301c-3.911,7.182-7.86,14.325-11.791,21.497
			c-0.804,1.463-1.645,2.897-2.812,4.972c-10.49-3.203-21.076-6.11-31.422-9.696c-9.094-3.155-17.949-6.99-26.852-10.671
			c-12.345-5.106-23.925-11.638-34.865-19.288c-7.86-5.498-15.664-11.083-23.438-16.696c-0.478-0.344-0.947-1.529-0.717-1.912
			c2.515-4.274,5.288-8.396,7.746-12.699c3.098-5.422,5.909-10.997,8.931-16.467c5.919-10.729,11.896-21.42,17.834-32.14
			c1.979-3.576,3.892-7.2,6.264-11.58c-4.848,0.736-9.562,1.109-14.143,1.109c-20.952,0-39.082-7.755-54.085-23.687
			c-13.78-14.63-20.406-32.607-19.986-52.737c0.478-23.074,9.811-42.38,27.559-56.992c13.952-11.484,29.663-17.643,47.354-17.643
			c4.523,0,9.17,0.401,13.952,1.224c-14.028-25.589-27.75-50.615-41.692-76.06c4.112-3.204,8.1-6.723,12.479-9.63
			c9.85-6.521,19.594-13.311,29.959-18.915c10.585-5.718,21.745-10.433,32.866-15.07c8.367-3.481,17.06-6.197,25.646-9.142
			c4.303-1.472,8.683-2.744,13.053-3.987c0.641-0.182,1.233-0.277,1.788-0.277c1.721,0,3.05,0.908,4.179,2.926
			c5.393,9.62,11.092,19.067,16.629,28.611c2.018,3.481,3.901,7.048,6.11,11.054c17.853-32.981,35.41-65.426,53.206-98.312
			c18.322,33.134,36.348,65.732,54.65,98.819c2.467-4.485,4.828-8.597,7.018-12.804c4.553-8.74,8.98-17.538,13.531-26.268
			c1.463-2.812,2.773-3.968,4.867-3.968c1.014,0,2.219,0.268,3.711,0.755c10.814,3.5,21.773,6.588,32.445,10.461
			c7.65,2.773,14.938,6.531,22.367,9.916c4.59,2.085,9.285,4.007,13.654,6.483c7.029,3.988,13.914,8.243,20.684,12.651
			c5.471,3.557,10.682,7.487,15.998,11.265c1.77,1.252,3.777,2.314,5.145,3.92c0.756,0.889,0.977,3.031,0.432,4.074
			c-3.576,6.751-7.498,13.32-11.18,20.024c-4.236,7.717-8.252,15.558-12.508,23.266c-2.246,4.064-4.895,7.898-7.182,11.943
			c-3.309,5.862-6.445,11.819-10.012,18.389c4.973-0.947,9.803-1.406,14.498-1.406c17.174,0,32.502,6.13,46.254,16.802
			c18.951,14.707,28.352,35.065,28.688,58.866c0.209,14.803-3.74,28.927-12.299,41.559c-8.309,12.26-19.039,21.602-32.379,27.693
			C483.902,376.6,474.101,378.465,463.82,378.465z"/>
		<path d="M261.746,512.598c0,18.102,14.669,32.818,32.704,32.818c18.034,0,32.704-14.726,32.704-32.818
			c0-18.092-14.67-32.818-32.704-32.818C276.415,479.779,261.746,494.506,261.746,512.598z"/>
	</g>
</g>
<g>
</g>
<g>
</g>
<g>
</g>
<g>
</g>
<g>
</g>
<g>
</g>
<g>
</g>
<g>
</g>
<g>
</g>
<g>
</g>
<g>
</g>
<g>
</g>
<g>
</g>
<g>
</g>
<g>
</g>
</svg>
