<?xml version="1.0" encoding="iso-8859-1"?>
<!-- Generator: Adobe Illustrator 19.0.0, SVG Export Plug-In . SVG Version: 6.00 Build 0)  -->
<svg xmlns="http://www.w3.org/2000/svg" xmlns:xlink="http://www.w3.org/1999/xlink" version="1.1" id="Layer_1" x="0px" y="0px" viewBox="0 0 512 512" style="enable-background:new 0 0 512 512;" xml:space="preserve" width="512px" height="512px">
<g>
	<g>
		<g>
			<path d="M128,170.667V224h74.56l9.152-64h-73.045C132.779,160,128,164.779,128,170.667z" fill="#0a9bcc"/>
			<path d="M0,341.333v85.333c0,5.888,4.779,10.667,10.667,10.667h161.408l15.253-106.667H10.667C4.779,330.667,0,335.445,0,341.333     z" fill="#0a9bcc"/>
			<path d="M320,85.333c0-5.888-4.779-10.667-10.667-10.667H202.667c-5.888,0-10.667,4.779-10.667,10.667v53.333h128V85.333z" fill="#0a9bcc"/>
			<path d="M64,256v53.333h126.357l9.152-64H74.667C68.779,245.333,64,250.112,64,256z" fill="#0a9bcc"/>
			<path d="M501.333,330.667H324.672l15.232,106.667h161.429c5.888,0,10.667-4.779,10.667-10.667v-85.333     C512,335.445,507.221,330.667,501.333,330.667z" fill="#0a9bcc"/>
			<path d="M448,256c0-5.888-4.779-10.667-10.667-10.667H312.491l9.152,64H448V256z" fill="#0a9bcc"/>
			<path d="M384,170.667c0-5.888-4.779-10.667-10.667-10.667h-73.024l9.152,64H384V170.667z" fill="#0a9bcc"/>
		</g>
	</g>
</g>
<g>
</g>
<g>
</g>
<g>
</g>
<g>
</g>
<g>
</g>
<g>
</g>
<g>
</g>
<g>
</g>
<g>
</g>
<g>
</g>
<g>
</g>
<g>
</g>
<g>
</g>
<g>
</g>
<g>
</g>
</svg>
