<?xml version="1.0" encoding="iso-8859-1"?>
<!-- Generator: Adobe Illustrator 19.0.0, SVG Export Plug-In . SVG Version: 6.00 Build 0)  -->
<svg xmlns="http://www.w3.org/2000/svg" xmlns:xlink="http://www.w3.org/1999/xlink" version="1.1" id="Layer_1" x="0px" y="0px" viewBox="0 0 290.557 290.557" style="enable-background:new 0 0 290.557 290.557;" xml:space="preserve" width="512px" height="512px">
<g>
	<g>
		<g>
			<path d="M277.634,214.509h-8.751l-4.615-18.462h-9.231l-4.615-18.462h-9.231l-4.615-18.462H222.73l-4.615-18.462h-9.231     l-4.615-18.462h-9.231l-4.615-18.462h-12.835V71.432h9.231V43.74H103.74v27.692h9.231v32.308h-12.835l-4.615,18.462H86.29     l-4.615,18.462h-9.231l-4.615,18.462H53.982l-4.615,18.462h-9.231l-4.615,18.462H26.29l-4.615,18.462h-8.751L0,246.817h290.557     L277.634,214.509z M229.366,168.355l2.308,9.231h-43.842l-1.846-9.231H229.366z M210.905,149.894l2.307,9.231H184.14     l-1.846-9.231H210.905z M197.059,131.432l2.307,9.231h-18.918l-1.846-9.231H197.059z M183.212,112.971l2.308,9.231h-8.765     l-1.846-9.231H183.212z M112.971,52.971h64.615v9.231h-64.615V52.971z M125.456,209.894l0.462-4.615h38.723l0.461,4.615H125.456z      M166.025,219.125l0.461,4.615h-42.415l0.462-4.615H166.025z M126.84,196.048l0.462-4.615h35.954l0.462,4.615H126.84z      M154.947,108.356l0.462,4.615h-20.262l0.462-4.615H154.947z M140.663,99.125v-9.231h9.231v9.231H140.663z M156.333,122.202     l0.461,4.615h-23.031l0.462-4.615H156.333z M157.717,136.048l0.462,4.615h-25.801l0.462-4.615H157.717z M159.102,149.894     l0.461,4.615h-28.569l0.462-4.615H159.102z M160.487,163.74l0.461,4.615H129.61l0.462-4.615H160.487z M161.871,177.587     l0.461,4.615h-34.108l0.462-4.615H161.871z M159.124,99.124V80.663h-27.692v18.462h-9.231V71.432h46.154v27.692H159.124z      M107.345,112.971h8.303l-1.846,9.231h-8.765L107.345,112.971z M93.498,131.432h18.457l-1.846,9.231H91.191L93.498,131.432z      M79.652,149.894h28.611l-1.846,9.231H77.345L79.652,149.894z M61.191,168.355h43.38l-1.846,9.231H58.883L61.191,168.355z      M90.725,237.586H13.634l5.538-13.846h74.322L90.725,237.586z M97.186,205.278l-1.846,9.231H31.191l2.307-9.231h14.857v-9.231     h-3.318l2.308-9.231h53.534l-1.846,9.231H76.048v9.231H97.186z M100.14,237.586l25.846-129.231h0.346l-12.923,129.231H100.14z      M122.687,237.586l0.461-4.615h44.262l0.462,4.615H122.687z M177.148,237.586l-12.923-129.231h0.346l25.846,129.231H177.148z      M189.679,186.817h53.534l2.307,9.231h-53.995L189.679,186.817z M193.371,205.278h63.688l2.307,9.231h-64.149L193.371,205.278z      M199.832,237.586l-2.769-13.846h74.322l5.538,13.846H199.832z" fill="#0a9bcc"/>
			<rect x="57.586" y="196.048" width="9.231" height="9.231" fill="#0a9bcc"/>
		</g>
	</g>
</g>
<g>
</g>
<g>
</g>
<g>
</g>
<g>
</g>
<g>
</g>
<g>
</g>
<g>
</g>
<g>
</g>
<g>
</g>
<g>
</g>
<g>
</g>
<g>
</g>
<g>
</g>
<g>
</g>
<g>
</g>
</svg>
