<?xml version="1.0" encoding="iso-8859-1"?>
<!-- Generator: Adobe Illustrator 16.0.0, SVG Export Plug-In . SVG Version: 6.00 Build 0)  -->
<!DOCTYPE svg PUBLIC "-//W3C//DTD SVG 1.1//EN" "http://www.w3.org/Graphics/SVG/1.1/DTD/svg11.dtd">
<svg version="1.1" id="Capa_1" xmlns="http://www.w3.org/2000/svg" xmlns:xlink="http://www.w3.org/1999/xlink" x="0px" y="0px"
	 width="559.731px" height="559.731px" viewBox="0 0 559.731 559.731" style="enable-background:new 0 0 559.731 559.731;"
	 xml:space="preserve">
<g>
	<g id="Layer_2_36_">
		<path d="M295.414,162.367l-15.061-39.302l-14.918,39.34c5.049-0.507,10.165-0.774,15.339-0.774
			C285.718,161.621,290.595,161.898,295.414,162.367z"/>
		<path d="M522.103,244.126c-20.062-0.631-36.71,12.67-55.787,21.937c-25.111,12.192-17.548-7.526-17.548-7.526l56.419-107.186
			c-31.346-31.967-127.869-68.324-127.869-68.324l-38.968,85.957L280.774,27.249L221.295,168.84l-38.9-85.804
			c0,0-96.533,36.356-127.87,68.324l56.418,107.186c0,0,7.564,19.718-17.547,7.525c-19.077-9.266-35.726-22.567-55.788-21.936
			C17.547,244.767,0,275.481,0,305.565c0,30.084,7.525,68.955,39.493,68.955c31.967,0,47.64-16.926,58.924-23.188
			c11.284-6.273,20.062,1.252,14.105,12.536S49.524,465.412,49.524,465.412s57.041,40.115,130.375,67.071l33.22-84.083
			c-49.601-24.91-83.796-76.127-83.796-135.31c0-61.372,36.758-114.214,89.352-137.986c1.511-0.688,3.002-1.406,4.542-2.037
			c9.964-4.112,20.483-7.095,31.384-9.008l25.732-67.836l25.943,67.731c10.576,1.807,20.779,4.657,30.495,8.53
			c1.176,0.468,2.391,0.88,3.557,1.377c53.99,23.18,91.925,76.844,91.925,139.229c0,59.795-34.913,111.441-85.346,136.056
			l32.924,83.337c73.335-26.956,130.375-67.071,130.375-67.071s-57.04-90.26-62.998-101.544
			c-5.957-11.284,2.821-18.81,14.105-12.536c11.283,6.272,26.956,23.188,58.924,23.188s39.493-38.861,39.493-68.955
			C559.712,275.472,542.165,244.757,522.103,244.126z"/>
		<path d="M256.131,173.478c-1.836,0.325-3.682,0.612-5.499,1.004c-8.912,1.932-17.518,4.676-25.723,8.205
			c-4.045,1.74-7.995,3.634-11.839,5.728c-44.159,24.078-74.195,70.925-74.195,124.667c0,55.146,31.681,102.931,77.743,126.396
			c19.297,9.831,41.052,15.491,64.146,15.491c22.481,0,43.682-5.393,62.596-14.745c46.895-23.18,79.302-71.394,79.302-127.152
			c0-54.851-31.336-102.434-77.007-126.043c-3.557-1.836-7.172-3.576-10.892-5.116c-7.86-3.242-16.056-5.814-24.547-7.622
			c-1.808-0.382-3.652-0.622-5.479-0.937c-1.807-0.306-3.614-0.593-5.44-0.832c-6.082-0.793-12.24-1.348-18.532-1.348
			c-6.541,0-12.919,0.602-19.221,1.463C259.736,172.895,257.929,173.163,256.131,173.478z M280.783,196.084
			c10.433,0,20.493,1.501,30.132,4.074c8.559,2.285,16.754,5.441,24.423,9.496c37.093,19.641,62.443,58.608,62.443,103.418
			c0,43.155-23.543,80.832-58.408,101.114c-17.251,10.04-37.227,15.883-58.59,15.883c-22.127,0-42.753-6.282-60.416-16.992
			c-33.842-20.531-56.581-57.614-56.581-100.005c0-44.064,24.499-82.486,60.578-102.434c14.889-8.233,31.776-13.196,49.715-14.22
			C276.309,196.294,278.518,196.084,280.783,196.084z"/>
		<path d="M236.997,354.764c-6.694,0-12.145,5.45-12.145,12.145v4.398c0,6.694,5.441,12.145,12.145,12.145h16.457
			c-1.683-11.743-0.717-22.376,0.268-28.688H236.997z"/>
		<path d="M327.458,383.452c5.001,0,9.295-3.041,11.15-7.373c0.641-1.473,0.994-3.079,0.994-4.771v-4.398
			c0-1.874-0.507-3.605-1.271-5.192c-1.961-4.074-6.054-6.952-10.873-6.952h-17.882c2.592,8.415,3.5,18.303,1.683,28.688H327.458z"
			/>
		<path d="M173.339,313.082c0,36.949,18.752,69.596,47.239,88.94c14.516,9.859,31.566,16.237,49.945,17.978
			c-7.879-8.176-12.527-17.633-15.089-26.985h-18.437c-6.407,0-12.116-2.85-16.084-7.277c-3.461-3.844-5.623-8.874-5.623-14.43
			v-4.398c0-5.938,2.41-11.322,6.283-15.243c3.939-3.987,9.39-6.464,15.424-6.464h18.809h49.974h21.697
			c3.863,0,7.449,1.1,10.595,2.888c6.579,3.729,11.093,10.72,11.093,18.819v4.398c0,7.765-4.131,14.535-10.279,18.379
			c-3.328,2.075-7.22,3.328-11.428,3.328h-18.676c-3.088,9.056-8.463,18.227-16.791,26.909c17.27-1.798,33.296-7.756,47.162-16.772
			c29.48-19.173,49.056-52.355,49.056-90.069c0-39.216-21.19-73.498-52.661-92.259c-16.064-9.572-34.75-15.176-54.765-15.176
			c-20.798,0-40.172,6.043-56.638,16.313C193.698,240.942,173.339,274.64,173.339,313.082z M306.287,274.583
			c4.513-9.027,15.156-14.64,27.778-14.64c0.775,0,1.502,0.201,2.257,0.249c11.026,0.622,21.22,5.499,27.53,13.598l2.238,2.888
			l-2.19,2.926c-6.789,9.036-16.667,14.688-26.89,15.597c-0.956,0.086-1.912,0.19-2.878,0.19c-11.284,0-21.362-5.89-27.664-16.16
			l-1.387-2.257L306.287,274.583z M268.353,311.484l1.271,3.691c1.501,4.398,6.206,13.493,11.159,13.493
			c4.915,0,9.649-9.372,11.055-13.646l1.138-3.48l3.653,0.201c9.658,0.517,12.594-1.454,13.244-2.065
			c0.392-0.363,0.641-0.794,0.641-1.722c0-2.639,2.142-4.781,4.781-4.781c2.639,0,4.781,2.143,4.781,4.781
			c0,3.414-1.253,6.417-3.624,8.664c-3.396,3.223-8.731,4.666-16.84,4.781c-2.534,5.852-8.635,16.839-18.838,16.839
			c-10.06,0-16.19-10.595-18.81-16.428c-5.756,0.315-13.368-0.249-18.216-4.514c-2.716-2.391-4.16-5.623-4.16-9.343
			c0-2.639,2.142-4.781,4.781-4.781s4.781,2.143,4.781,4.781c0,0.976,0.258,1.597,0.908,2.171c2.2,1.932,8.004,2.696,14.42,1.855
			L268.353,311.484z M257.9,273.789l2.238,2.878l-2.19,2.916c-7.411,9.888-18.532,15.788-29.758,15.788
			c-1.875,0-3.701-0.22-5.499-0.535c-9.018-1.598-16.916-7.058-22.166-15.625l-1.396-2.266l1.186-2.372
			c3.94-7.87,12.546-13.148,23.055-14.363c1.54-0.182,3.127-0.277,4.733-0.277C240.028,259.942,251.168,265.116,257.9,273.789z"/>
		<path d="M301.468,383.452c2.228-10.596,1.08-20.636-1.961-28.688h-36.06c-0.918,5.489-2.171,16.591-0.191,28.688
			c0.517,3.146,1.272,6.359,2.295,9.562c2.763,8.664,7.563,17.231,15.73,24.088c8.443-7.707,13.941-15.94,17.26-24.088
			C299.86,389.801,300.808,386.607,301.468,383.452z"/>
	</g>
</g>
<g>
</g>
<g>
</g>
<g>
</g>
<g>
</g>
<g>
</g>
<g>
</g>
<g>
</g>
<g>
</g>
<g>
</g>
<g>
</g>
<g>
</g>
<g>
</g>
<g>
</g>
<g>
</g>
<g>
</g>
</svg>
