<?xml version="1.0" encoding="UTF-8" standalone="no"?>
<!-- Created with Inkscape (http://www.inkscape.org/) -->
<svg
   xmlns:svg="http://www.w3.org/2000/svg"
   xmlns="http://www.w3.org/2000/svg"
   version="1.0"
   width="450"
   height="450"
   id="svg2">
  <defs
     id="defs5" />
  <path
     d="M 146.46685,224.3 C 146.46685,238.10712 135.27397,249.3 121.46685,249.3 C 107.65973,249.3 96.46685,238.10712 96.46685,224.3 C 96.46685,210.49288 107.65973,199.3 121.46685,199.3 C 135.27397,199.3 146.46685,210.49288 146.46685,224.3 z "
     style="opacity:1;fill:#B7000A;fill-opacity:1;stroke:#B7000A;stroke-width:1.5;stroke-linecap:round;stroke-linejoin:round;stroke-miterlimit:4;stroke-dasharray:none;stroke-dashoffset:0;stroke-opacity:1"
     id="path2163" />
  <path
     d="M 358.46685,224.3 C 358.46685,238.10712 347.27397,249.3 333.46685,249.3 C 319.65973,249.3 308.46685,238.10712 308.46685,224.3 C 308.46685,210.49288 319.65973,199.3 333.46685,199.3 C 347.27397,199.3 358.46685,210.49288 358.46685,224.3 z "
     style="opacity:1;fill:#B7000A;fill-opacity:1;stroke:#B7000A;stroke-width:1.5;stroke-linecap:round;stroke-linejoin:round;stroke-miterlimit:4;stroke-dasharray:none;stroke-dashoffset:0;stroke-opacity:1"
     id="path3160" />
  <path
     d="M 288.46685,224.3 C 288.46685,238.10712 277.27397,249.3 263.46685,249.3 C 249.65973,249.3 238.46685,238.10712 238.46685,224.3 C 238.46685,210.49288 249.65973,199.3 263.46685,199.3 C 277.27397,199.3 288.46685,210.49288 288.46685,224.3 z "
     style="opacity:1;fill:#B7000A;fill-opacity:1;stroke:#B7000A;stroke-width:1.5;stroke-linecap:round;stroke-linejoin:round;stroke-miterlimit:4;stroke-dasharray:none;stroke-dashoffset:0;stroke-opacity:1"
     id="path3162" />
  <path
     d="M 218.46685,224.3 C 218.46685,238.10712 207.27397,249.3 193.46685,249.3 C 179.65973,249.3 168.46685,238.10712 168.46685,224.3 C 168.46685,210.49288 179.65973,199.3 193.46685,199.3 C 207.27397,199.3 218.46685,210.49288 218.46685,224.3 z "
     style="opacity:1;fill:#B7000A;fill-opacity:1;stroke:#B7000A;stroke-width:1.5;stroke-linecap:round;stroke-linejoin:round;stroke-miterlimit:4;stroke-dasharray:none;stroke-dashoffset:0;stroke-opacity:1"
     id="path3164" />
</svg>
