<?xml version="1.0" encoding="UTF-8" standalone="no"?>
<!-- Created with Inkscape (http://www.inkscape.org/) -->
<svg
   xmlns:svg="http://www.w3.org/2000/svg"
   xmlns="http://www.w3.org/2000/svg"
   version="1.0"
   width="450"
   height="450"
   id="svg2">
  <defs
     id="defs5" />
  <path
     d="M 206.46685,184.3 C 206.46685,198.10712 195.27397,209.3 181.46685,209.3 C 167.65973,209.3 156.46685,198.10712 156.46685,184.3 C 156.46685,170.49288 167.65973,159.3 181.46685,159.3 C 195.27397,159.3 206.46685,170.49288 206.46685,184.3 z "
     style="opacity:1;fill:#B7000A;fill-opacity:1;stroke:#B7000A;stroke-width:1.5;stroke-linecap:round;stroke-linejoin:round;stroke-miterlimit:4;stroke-dasharray:none;stroke-dashoffset:0;stroke-opacity:1"
     id="path2163" />
  <path
     d="M 75,246.8 L 375,246.8 L 375,284.3 L 75,284.3 L 75,246.8 L 75,246.8 L 75,246.8 z "
     style="fill:#B7000A;fill-rule:evenodd;stroke:#B7000A;stroke-width:5px;stroke-linecap:butt;stroke-linejoin:miter;stroke-opacity:1"
     id="path2165" />
  <path
     d="M 298.46685,184.3 C 298.46685,198.10712 287.27397,209.3 273.46685,209.3 C 259.65973,209.3 248.46685,198.10712 248.46685,184.3 C 248.46685,170.49288 259.65973,159.3 273.46685,159.3 C 287.27397,159.3 298.46685,170.49288 298.46685,184.3 z "
     style="opacity:1;fill:#B7000A;fill-opacity:1;stroke:#B7000A;stroke-width:1.5;stroke-linecap:round;stroke-linejoin:round;stroke-miterlimit:4;stroke-dasharray:none;stroke-dashoffset:0;stroke-opacity:1"
     id="path3160" />
</svg>
